<?xml version="1.0" encoding="UTF-8" standalone="no"?>
<svg
   xmlns:dc="http://purl.org/dc/elements/1.1/"
   xmlns:cc="http://creativecommons.org/ns#"
   xmlns:rdf="http://www.w3.org/1999/02/22-rdf-syntax-ns#"
   xmlns:svg="http://www.w3.org/2000/svg"
   xmlns="http://www.w3.org/2000/svg"
   xmlns:sodipodi="http://sodipodi.sourceforge.net/DTD/sodipodi-0.dtd"
   xmlns:inkscape="http://www.inkscape.org/namespaces/inkscape"
   inkscape:version="1.0 (4035a4fb49, 2020-05-01)"
   height="213.33299"
   width="490.66599"
   sodipodi:docname="imdb.svg"
   xml:space="preserve"
   viewBox="0 0 490.66599 213.333"
   y="0px"
   x="0px"
   id="Capa_1"
   version="1.1"><metadata
   id="metadata51"><rdf:RDF><cc:Work
       rdf:about=""><dc:format>image/svg+xml</dc:format><dc:type
         rdf:resource="http://purl.org/dc/dcmitype/StillImage" /></cc:Work></rdf:RDF></metadata><defs
   id="defs49" /><sodipodi:namedview
   inkscape:current-layer="Capa_1"
   inkscape:window-maximized="1"
   inkscape:window-y="-8"
   inkscape:window-x="-8"
   inkscape:cy="-2.7759557"
   inkscape:cx="485.65088"
   inkscape:zoom="1.0964667"
   showguides="true"
   showgrid="false"
   id="namedview47"
   inkscape:window-height="705"
   inkscape:window-width="1366"
   inkscape:pageshadow="2"
   inkscape:pageopacity="0"
   guidetolerance="10"
   gridtolerance="10"
   objecttolerance="10"
   borderopacity="1"
   bordercolor="#666666"
   pagecolor="#ffffff" />
<path
   id="path2"
   d="m 53.333,0 h 384 c 29.455,0 53.333,23.878 53.333,53.333 V 160 c 0,29.455 -23.878,53.333 -53.333,53.333 h -384 C 23.878,213.333 0,189.455 0,160 V 53.333 C 0,23.878 23.878,0 53.333,0 Z"
   style="fill:#ffc107" />
<g
   transform="translate(0,-138.667)"
   id="g14">
	<path
   id="path4"
   d="m 96,309.333 c -5.891,0 -10.667,-4.776 -10.667,-10.667 V 192 c 0,-5.891 4.776,-10.667 10.667,-10.667 5.891,0 10.667,4.776 10.667,10.667 v 106.667 c 0,5.891 -4.776,10.666 -10.667,10.666 z"
   style="fill:#455a64" />
	<path
   id="path6"
   d="m 224,309.333 c -5.891,0 -10.667,-4.776 -10.667,-10.667 v -96 h -1.92 L 191.787,300.8 c -1.172,5.773 -6.803,9.503 -12.576,8.331 -4.198,-0.852 -7.478,-4.133 -8.331,-8.331 l -19.627,-98.133 h -1.92 v 96 c 0,5.891 -4.776,10.667 -10.667,10.667 -5.891,0 -10.666,-4.776 -10.666,-10.667 V 192 c 0,-5.891 4.776,-10.667 10.667,-10.667 H 160 c 5.07,-0.001 9.439,3.566 10.453,8.533 l 10.88,54.4 10.88,-54.4 c 1.014,-4.967 5.384,-8.534 10.453,-8.533 H 224 c 5.891,0 10.667,4.776 10.667,10.667 v 106.667 c 0,5.891 -4.776,10.666 -10.667,10.666 z"
   style="fill:#455a64" />
	<path
   id="path8"
   d="M 288,309.333 H 266.667 C 260.776,309.333 256,304.557 256,298.666 V 192 c 0,-5.891 4.776,-10.667 10.667,-10.667 H 288 c 17.673,0 32,14.327 32,32 v 64 c 0,17.673 -14.327,32 -32,32 z M 277.333,288 H 288 c 5.891,0 10.667,-4.776 10.667,-10.667 v -64 c 0,-5.891 -4.776,-10.667 -10.667,-10.667 h -10.667 z"
   style="fill:#455a64" />
	<path
   id="path10"
   d="m 352,309.333 c -5.891,0 -10.667,-4.776 -10.667,-10.667 V 192 c 0,-5.891 4.776,-10.667 10.667,-10.667 5.891,0 10.667,4.776 10.667,10.667 v 106.667 c 0,5.891 -4.776,10.666 -10.667,10.666 z"
   style="fill:#455a64" />
	<path
   id="path12"
   d="m 373.333,309.333 c -17.673,0 -32,-14.327 -32,-32 v -42.667 c 0,-17.673 14.327,-32 32,-32 17.673,0 32,14.327 32,32 v 42.667 c 0,17.673 -14.327,32 -32,32 z m 0,-85.333 c -5.891,0 -10.667,4.776 -10.667,10.667 v 42.667 c 0,5.891 4.776,10.667 10.667,10.667 5.891,0 10.667,-4.777 10.667,-10.668 V 234.666 C 384,228.776 379.224,224 373.333,224 Z"
   style="fill:#455a64" />
</g>
<g
   transform="translate(0,-138.667)"
   id="g16">
</g>
<g
   transform="translate(0,-138.667)"
   id="g18">
</g>
<g
   transform="translate(0,-138.667)"
   id="g20">
</g>
<g
   transform="translate(0,-138.667)"
   id="g22">
</g>
<g
   transform="translate(0,-138.667)"
   id="g24">
</g>
<g
   transform="translate(0,-138.667)"
   id="g26">
</g>
<g
   transform="translate(0,-138.667)"
   id="g28">
</g>
<g
   transform="translate(0,-138.667)"
   id="g30">
</g>
<g
   transform="translate(0,-138.667)"
   id="g32">
</g>
<g
   transform="translate(0,-138.667)"
   id="g34">
</g>
<g
   transform="translate(0,-138.667)"
   id="g36">
</g>
<g
   transform="translate(0,-138.667)"
   id="g38">
</g>
<g
   transform="translate(0,-138.667)"
   id="g40">
</g>
<g
   transform="translate(0,-138.667)"
   id="g42">
</g>
<g
   transform="translate(0,-138.667)"
   id="g44">
</g>
</svg>
