<?xml version="1.0" encoding="UTF-8" standalone="no"?>
<svg
   xmlns:dc="http://purl.org/dc/elements/1.1/"
   xmlns:cc="http://creativecommons.org/ns#"
   xmlns:rdf="http://www.w3.org/1999/02/22-rdf-syntax-ns#"
   xmlns:svg="http://www.w3.org/2000/svg"
   xmlns="http://www.w3.org/2000/svg"
   xmlns:sodipodi="http://sodipodi.sourceforge.net/DTD/sodipodi-0.dtd"
   xmlns:inkscape="http://www.inkscape.org/namespaces/inkscape"
   inkscape:version="1.0 (4035a4fb49, 2020-05-01)"
   height="52.799999"
   width="313.60001"
   sodipodi:docname="myanimelist_logo.svg"
   xml:space="preserve"
   viewBox="0 0 313.60001 52.799999"
   y="0px"
   x="0px"
   id="レイヤー_1"
   version="1.1"><metadata
   id="metadata37"><rdf:RDF><cc:Work
       rdf:about=""><dc:format>image/svg+xml</dc:format><dc:type
         rdf:resource="http://purl.org/dc/dcmitype/StillImage" /><dc:title></dc:title></cc:Work></rdf:RDF></metadata><defs
   id="defs35" /><sodipodi:namedview
   inkscape:current-layer="レイヤー_1"
   inkscape:window-maximized="1"
   inkscape:window-y="-8"
   inkscape:window-x="-8"
   inkscape:cy="26"
   inkscape:cx="157.17787"
   inkscape:zoom="2.9175"
   showgrid="false"
   id="namedview33"
   inkscape:window-height="705"
   inkscape:window-width="1366"
   inkscape:pageshadow="2"
   inkscape:pageopacity="0"
   guidetolerance="10"
   gridtolerance="10"
   objecttolerance="10"
   borderopacity="1"
   bordercolor="#666666"
   pagecolor="#ffffff" />
<style
   id="style2"
   type="text/css">
	.st0{fill:#2F52A2;}
</style>
<g
   transform="translate(-43.1,-1.5)"
   id="g30">
	<polygon
   id="polygon4"
   points="53.1,1.5 62,14.3 70.9,1.5 80.9,1.5 80.9,43.1 70.9,43.1 70.9,17.9 62,29.4 53.3,17.9 53.3,43.1 43.1,43.1 43.1,1.5 "
   class="st0" />
	<polygon
   id="polygon6"
   points="99.1,26.5 103.7,11.7 113.8,11.7 99.9,54.3 89.6,54.3 94.9,40.9 83.4,11.7 94.4,11.7 "
   class="st0" />
	<path
   id="path8"
   d="m 147.6,1.5 c 0,0 -7.1,0 -8.7,0 -3.5,0 -15.9,0 -21.3,13.6 -2.9,7.1 -4.3,20.8 3.8,34 l 8.3,-6.1 c 0,0 -3.3,-4.7 -4.7,-13.8 h 12.5 l 0.1,13.8 h 11.2 V 11.7 h -11.1 v 8.8 l -10.6,-0.1 c 0,0 1.8,-10.4 12.4,-10.1 h 10.6 z"
   class="st0" />
	<path
   id="path10"
   d="M 154,11.7 V 43 h 10.1 V 19.2 h 3.4 c 0,0 3,0.1 3,2.8 0,2.7 0,20.9 0,20.9 h 10.2 c 0,0 0,-21.1 0,-22.9 0,-1.8 -0.4,-8.4 -8,-8.4 -7.1,0.2 -18.7,0.1 -18.7,0.1 z"
   class="st0" />
	<rect
   id="rect12"
   height="7.5999999"
   width="10.2"
   class="st0"
   y="1.5"
   x="185.5" />
	<rect
   id="rect14"
   height="31.299999"
   width="10.2"
   class="st0"
   y="11.7"
   x="185.5" />
	<rect
   id="rect16"
   height="7.5999999"
   width="10.2"
   class="st0"
   y="1.5"
   x="302.5" />
	<rect
   id="rect18"
   height="31.299999"
   width="10.2"
   class="st0"
   y="11.7"
   x="302.5" />
	<path
   id="path20"
   d="M 200.8,43 V 11.9 l 32.1,-0.2 c 0,0 8,-0.5 8,8.3 0,8.8 0,22.9 0,22.9 L 231,43 231.2,23.1 c 0,0 0.2,-3.9 -2.3,-3.9 -2,0 -4.2,0 -4.2,0 V 43 H 217 V 19.2 h -7.5 l 0.2,23.7 h -8.9 z"
   class="st0" />
	<polygon
   id="polygon22"
   points="286.2,34.1 300.1,34.1 297.9,42.9 276.2,42.9 276.2,1.6 286.2,1.6 "
   class="st0" />
	<path
   id="path24"
   d="m 335.2,18.6 -2.3,-7.2 c 0,0 -3.3,0 -6.6,0 -3.8,0 -16.8,1.2 -6.7,15.3 l 4.7,5.8 c 0,0 1.1,2.6 -2,2.7 -3.2,0.1 -5.6,0 -5.6,0 l 2.6,7.8 c 0,0 6.2,0 7.9,0 3.5,0 12.7,-1.5 8.3,-10.4 l -6.9,-10.5 c 0,0 -2.9,-3.5 1.7,-3.5 2.2,0 4.9,0 4.9,0 z"
   class="st0" />
	<path
   id="path26"
   d="m 338.1,11.3 h 3.5 V 6.5 l 9.1,-2.7 v 7.6 h 4.7 V 19 h -4.8 v 14.2 c 0,0 -0.2,2.1 1.4,2.1 1.6,0 4.7,0 4.7,0 L 354,43 h -5.9 c 0,0 -6.7,-0.7 -6.5,-7.8 0.2,-7.1 0.2,-16.2 0.2,-16.2 l -3.7,-0.2 z"
   class="st0" />
	<path
   id="path28"
   d="m 271.3,20 c 0,0 1.5,-9.7 -9.7,-10.2 -6.7,-0.3 -10.8,2.7 -10.8,2.7 0,0 -5.5,3.1 -6.2,10.8 -0.6,6.7 4.5,19.1 16,19.6 h 7.6 l 3.1,-7.6 -10.6,0.1 c 0.1,0 10.6,-7.6 10.6,-15.4 z m -13.6,6.7 c -3.3,2.2 -5.1,-2.1 -1.6,-6.8 0,0 1.3,-2.2 5.7,-1 2.7,0.8 -0.6,5.3 -4.1,7.8 z"
   class="st0" />
</g>
</svg>
